<svg width="770" height="300" viewBox="0 0 770 300" fill="none" xmlns="http://www.w3.org/2000/svg">
<path d="M35 162H305" stroke="black" style="stroke:black;stroke-opacity:1;" stroke-width="36"/>
<path d="M74.541 257.459L265.46 66.5402" stroke="black" style="stroke:black;stroke-opacity:1;" stroke-width="36"/>
<path d="M74.541 66.541L265.46 257.46" stroke="black" style="stroke:black;stroke-opacity:1;" stroke-width="36"/>
<path d="M170 27L170 162" stroke="black" style="stroke:black;stroke-opacity:1;" stroke-width="36"/>
<path d="M564.561 181.999V132.859H577.161V142.579L576.441 140.419C577.581 137.479 579.411 135.319 581.931 133.939C584.511 132.499 587.511 131.779 590.931 131.779C594.651 131.779 597.891 132.559 600.651 134.119C603.471 135.679 605.661 137.869 607.221 140.689C608.781 143.449 609.561 146.689 609.561 150.409V181.999H596.061V153.289C596.061 151.369 595.671 149.719 594.891 148.339C594.171 146.959 593.121 145.879 591.741 145.099C590.421 144.319 588.861 143.929 587.061 143.929C585.321 143.929 583.761 144.319 582.381 145.099C581.001 145.879 579.921 146.959 579.141 148.339C578.421 149.719 578.061 151.369 578.061 153.289V181.999H564.561Z" fill="black" style="fill:black;fill-opacity:1;"/>
<path d="M533.321 201.799C529.541 201.799 526.031 201.169 522.791 199.909C519.551 198.649 516.761 196.879 514.421 194.599C512.141 192.379 510.491 189.739 509.471 186.679L521.981 182.269C522.641 184.549 523.991 186.349 526.031 187.669C528.071 188.989 530.501 189.649 533.321 189.649C535.541 189.649 537.461 189.229 539.081 188.389C540.701 187.609 541.931 186.439 542.771 184.879C543.671 183.319 544.121 181.489 544.121 179.389V168.139L546.731 171.379C545.051 174.139 542.891 176.209 540.251 177.589C537.611 178.909 534.521 179.569 530.981 179.569C526.421 179.569 522.341 178.549 518.741 176.509C515.141 174.409 512.321 171.559 510.281 167.959C508.241 164.299 507.221 160.159 507.221 155.539C507.221 150.919 508.241 146.839 510.281 143.299C512.321 139.699 515.111 136.879 518.651 134.839C522.191 132.799 526.211 131.779 530.711 131.779C534.251 131.779 537.341 132.499 539.981 133.939C542.621 135.319 544.871 137.449 546.731 140.329L545.021 143.569V132.859H557.621V179.389C557.621 183.709 556.571 187.549 554.471 190.909C552.371 194.329 549.491 196.999 545.831 198.919C542.231 200.839 538.061 201.799 533.321 201.799ZM532.871 167.329C535.151 167.329 537.131 166.849 538.811 165.889C540.491 164.929 541.781 163.579 542.681 161.839C543.641 160.099 544.121 158.059 544.121 155.719C544.121 153.379 543.641 151.339 542.681 149.599C541.721 147.799 540.401 146.419 538.721 145.459C537.041 144.439 535.091 143.929 532.871 143.929C530.591 143.929 528.551 144.439 526.751 145.459C525.011 146.419 523.631 147.799 522.611 149.599C521.651 151.339 521.171 153.379 521.171 155.719C521.171 157.999 521.651 160.009 522.611 161.749C523.631 163.489 525.011 164.869 526.751 165.889C528.551 166.849 530.591 167.329 532.871 167.329Z" fill="black" style="fill:black;fill-opacity:1;"/>
<path d="M488.822 181.999V132.859H502.322V181.999H488.822ZM488.822 128.449V114.949H502.322V128.449H488.822Z" fill="black" style="fill:black;fill-opacity:1;"/>
<path d="M464.763 183.079C459.363 183.079 454.653 181.819 450.633 179.299C446.673 176.719 443.973 173.269 442.533 168.949L452.433 164.269C453.693 166.909 455.403 168.979 457.563 170.479C459.723 171.979 462.123 172.729 464.763 172.729C466.683 172.729 468.153 172.339 469.173 171.559C470.193 170.779 470.703 169.699 470.703 168.319C470.703 167.599 470.523 166.999 470.163 166.519C469.803 165.979 469.263 165.499 468.543 165.079C467.823 164.659 466.923 164.299 465.843 163.999L457.473 161.659C453.453 160.519 450.363 158.689 448.203 156.169C446.043 153.589 444.963 150.559 444.963 147.079C444.963 144.019 445.743 141.349 447.303 139.069C448.863 136.789 451.053 135.019 453.873 133.759C456.693 132.439 459.933 131.779 463.593 131.779C468.393 131.779 472.593 132.919 476.193 135.199C479.853 137.419 482.433 140.569 483.933 144.649L473.943 149.329C473.223 147.289 471.903 145.669 469.983 144.469C468.123 143.209 465.993 142.579 463.593 142.579C461.853 142.579 460.473 142.939 459.453 143.659C458.493 144.379 458.013 145.369 458.013 146.629C458.013 147.289 458.193 147.889 458.553 148.429C458.913 148.969 459.483 149.449 460.263 149.869C461.103 150.289 462.123 150.679 463.323 151.039L471.153 153.379C475.233 154.579 478.353 156.409 480.513 158.869C482.673 161.269 483.753 164.239 483.753 167.779C483.753 170.839 482.943 173.509 481.323 175.789C479.763 178.069 477.573 179.869 474.753 181.189C471.933 182.449 468.603 183.079 464.763 183.079Z" fill="black" style="fill:black;fill-opacity:1;"/>
<path d="M417.154 183.079C411.934 183.079 407.404 181.939 403.564 179.659C399.724 177.319 396.754 174.199 394.654 170.299C392.554 166.399 391.504 162.079 391.504 157.339C391.504 152.419 392.584 148.039 394.744 144.199C396.964 140.359 399.934 137.329 403.654 135.109C407.374 132.889 411.574 131.779 416.254 131.779C420.154 131.779 423.604 132.409 426.604 133.669C429.604 134.869 432.124 136.579 434.164 138.799C436.264 141.019 437.854 143.599 438.934 146.539C440.014 149.419 440.554 152.569 440.554 155.989C440.554 156.949 440.494 157.909 440.374 158.869C440.314 159.769 440.164 160.549 439.924 161.209H403.114V151.309H432.274L425.884 155.989C426.484 153.409 426.454 151.129 425.794 149.149C425.134 147.109 423.964 145.519 422.284 144.379C420.664 143.179 418.654 142.579 416.254 142.579C413.914 142.579 411.904 143.149 410.224 144.289C408.544 145.429 407.284 147.109 406.444 149.329C405.604 151.549 405.274 154.249 405.454 157.429C405.214 160.189 405.544 162.619 406.444 164.719C407.344 166.819 408.724 168.469 410.584 169.669C412.444 170.809 414.694 171.379 417.334 171.379C419.734 171.379 421.774 170.899 423.454 169.939C425.194 168.979 426.544 167.659 427.504 165.979L438.304 171.109C437.344 173.509 435.814 175.609 433.714 177.409C431.674 179.209 429.244 180.619 426.424 181.639C423.604 182.599 420.514 183.079 417.154 183.079Z" fill="black" style="fill:black;fill-opacity:1;"/>
<path d="M330.941 181.999V114.949H352.811C360.071 114.949 366.371 116.389 371.711 119.269C377.051 122.149 381.191 126.109 384.131 131.149C387.071 136.189 388.541 141.949 388.541 148.429C388.541 154.909 387.071 160.699 384.131 165.799C381.191 170.839 377.051 174.799 371.711 177.679C366.371 180.559 360.071 181.999 352.811 181.999H330.941ZM344.891 169.849H353.171C357.551 169.849 361.331 168.979 364.511 167.239C367.691 165.439 370.151 162.949 371.891 159.769C373.691 156.529 374.591 152.749 374.591 148.429C374.591 144.049 373.691 140.269 371.891 137.089C370.151 133.909 367.691 131.449 364.511 129.709C361.331 127.969 357.551 127.099 353.171 127.099H344.891V169.849Z" fill="black" style="fill:black;fill-opacity:1;"/>
<path d="M707.165 103.079C703.625 103.079 700.565 102.509 697.985 101.369C695.405 100.229 693.425 98.6093 692.045 96.5093C690.665 94.3493 689.975 91.7993 689.975 88.8593C689.975 86.0993 690.605 83.6693 691.865 81.5693C693.125 79.4093 695.045 77.6093 697.625 76.1693C700.265 74.7293 703.535 73.7093 707.435 73.1093L722.465 70.6793V80.5793L709.865 82.8293C707.945 83.1893 706.475 83.8193 705.455 84.7193C704.435 85.5593 703.925 86.7893 703.925 88.4093C703.925 89.9093 704.495 91.0793 705.635 91.9193C706.775 92.7593 708.185 93.1793 709.865 93.1793C712.085 93.1793 714.035 92.6993 715.715 91.7393C717.395 90.7793 718.685 89.4893 719.585 87.8693C720.545 86.1893 721.025 84.3593 721.025 82.3793V69.5993C721.025 67.7393 720.275 66.1793 718.775 64.9193C717.335 63.6593 715.355 63.0293 712.835 63.0293C710.435 63.0293 708.305 63.6893 706.445 65.0093C704.645 66.3293 703.325 68.0693 702.485 70.2293L691.685 65.0993C692.645 62.3393 694.175 59.9693 696.275 57.9893C698.375 56.0093 700.895 54.4793 703.835 53.3993C706.775 52.3193 709.985 51.7793 713.465 51.7793C717.605 51.7793 721.265 52.5293 724.445 54.0293C727.625 55.5293 730.085 57.6293 731.825 60.3293C733.625 62.9693 734.525 66.0593 734.525 69.5993V101.999H721.925V94.0793L724.985 93.5393C723.545 95.6993 721.955 97.4993 720.215 98.9393C718.475 100.319 716.525 101.339 714.365 101.999C712.205 102.719 709.805 103.079 707.165 103.079Z" fill="black" style="fill:black;fill-opacity:1;"/>
<path d="M667.896 103.079C662.496 103.079 657.786 101.819 653.766 99.2993C649.806 96.7193 647.106 93.2693 645.666 88.9493L655.566 84.2693C656.826 86.9093 658.536 88.9793 660.696 90.4793C662.856 91.9793 665.256 92.7293 667.896 92.7293C669.816 92.7293 671.286 92.3393 672.306 91.5593C673.326 90.7793 673.836 89.6993 673.836 88.3193C673.836 87.5993 673.656 86.9993 673.296 86.5193C672.936 85.9793 672.396 85.4993 671.676 85.0793C670.956 84.6593 670.056 84.2993 668.976 83.9993L660.606 81.6593C656.586 80.5193 653.496 78.6893 651.336 76.1693C649.176 73.5893 648.096 70.5593 648.096 67.0793C648.096 64.0193 648.876 61.3493 650.436 59.0693C651.996 56.7893 654.186 55.0193 657.006 53.7593C659.826 52.4393 663.066 51.7793 666.726 51.7793C671.526 51.7793 675.726 52.9193 679.326 55.1993C682.986 57.4193 685.566 60.5693 687.066 64.6493L677.076 69.3293C676.356 67.2893 675.036 65.6693 673.116 64.4693C671.256 63.2093 669.126 62.5793 666.726 62.5793C664.986 62.5793 663.606 62.9393 662.586 63.6593C661.626 64.3793 661.146 65.3693 661.146 66.6293C661.146 67.2893 661.326 67.8893 661.686 68.4293C662.046 68.9693 662.616 69.4493 663.396 69.8693C664.236 70.2893 665.256 70.6793 666.456 71.0393L674.286 73.3793C678.366 74.5793 681.486 76.4093 683.646 78.8693C685.806 81.2693 686.886 84.2393 686.886 87.7793C686.886 90.8393 686.076 93.5093 684.456 95.7893C682.896 98.0693 680.706 99.8693 677.886 101.189C675.066 102.449 671.736 103.079 667.896 103.079Z" fill="black" style="fill:black;fill-opacity:1;"/>
<path d="M628.258 101.999V52.8592H641.758V101.999H628.258ZM628.258 48.4492V34.9492H641.758V48.4492H628.258Z" fill="black" style="fill:black;fill-opacity:1;"/>
<path d="M607.879 101.999V33.8691H621.379V101.999H607.879Z" fill="black" style="fill:black;fill-opacity:1;"/>
<path d="M596.668 102.539C590.728 102.539 586.108 100.949 582.808 97.7692C579.568 94.5292 577.948 90.0292 577.948 84.2692V64.5592H569.668V52.8592H570.118C572.638 52.8592 574.558 52.2292 575.878 50.9692C577.258 49.7092 577.948 47.8192 577.948 45.2992V41.6992H591.448V52.8592H602.968V64.5592H591.448V83.3692C591.448 85.0492 591.748 86.4592 592.348 87.5992C592.948 88.6792 593.878 89.4892 595.138 90.0292C596.398 90.5692 597.958 90.8392 599.818 90.8392C600.238 90.8392 600.718 90.8092 601.258 90.7492C601.798 90.6892 602.368 90.6292 602.968 90.5692V101.999C602.068 102.119 601.048 102.239 599.908 102.359C598.768 102.479 597.688 102.539 596.668 102.539Z" fill="black" style="fill:black;fill-opacity:1;"/>
<path d="M544.648 103.079C539.428 103.079 534.898 101.939 531.058 99.6593C527.218 97.3193 524.248 94.1993 522.148 90.2993C520.048 86.3993 518.998 82.0793 518.998 77.3393C518.998 72.4193 520.078 68.0393 522.238 64.1993C524.458 60.3593 527.428 57.3293 531.148 55.1093C534.868 52.8893 539.068 51.7793 543.748 51.7793C547.648 51.7793 551.098 52.4093 554.098 53.6693C557.098 54.8693 559.618 56.5793 561.658 58.7993C563.758 61.0193 565.348 63.5993 566.428 66.5393C567.508 69.4193 568.048 72.5693 568.048 75.9893C568.048 76.9493 567.988 77.9093 567.868 78.8693C567.808 79.7693 567.658 80.5493 567.418 81.2093H530.608V71.3093H559.768L553.378 75.9893C553.978 73.4093 553.948 71.1293 553.288 69.1493C552.628 67.1093 551.458 65.5193 549.778 64.3793C548.158 63.1793 546.148 62.5793 543.748 62.5793C541.408 62.5793 539.398 63.1493 537.718 64.2893C536.038 65.4293 534.778 67.1093 533.938 69.3293C533.098 71.5493 532.768 74.2493 532.948 77.4293C532.708 80.1893 533.038 82.6193 533.938 84.7193C534.838 86.8193 536.218 88.4693 538.078 89.6693C539.938 90.8093 542.188 91.3793 544.828 91.3793C547.228 91.3793 549.268 90.8993 550.948 89.9393C552.688 88.9793 554.038 87.6593 554.998 85.9793L565.798 91.1093C564.838 93.5093 563.308 95.6093 561.208 97.4093C559.168 99.2093 556.738 100.619 553.918 101.639C551.098 102.599 548.008 103.079 544.648 103.079Z" fill="black" style="fill:black;fill-opacity:1;"/>
<path d="M489.262 101.998V52.8584H501.862V64.6484L500.962 62.9384C502.042 58.7984 503.812 56.0084 506.272 54.5684C508.792 53.0684 511.762 52.3184 515.182 52.3184H518.062V64.0184H513.832C510.532 64.0184 507.862 65.0384 505.822 67.0784C503.782 69.0584 502.762 71.8784 502.762 75.5384V101.998H489.262Z" fill="black" style="fill:black;fill-opacity:1;"/>
<path d="M461.362 103.079C456.442 103.079 452.002 101.969 448.042 99.7493C444.142 97.4693 441.022 94.3793 438.682 90.4793C436.402 86.5793 435.262 82.1993 435.262 77.3393C435.262 72.4793 436.402 68.1293 438.682 64.2893C440.962 60.3893 444.082 57.3293 448.042 55.1093C452.002 52.8893 456.442 51.7793 461.362 51.7793C465.022 51.7793 468.412 52.4093 471.532 53.6693C474.652 54.9293 477.322 56.6993 479.542 58.9793C481.762 61.1993 483.352 63.8393 484.312 66.8993L472.612 71.9393C471.772 69.4793 470.332 67.5293 468.292 66.0893C466.312 64.6493 464.002 63.9293 461.362 63.9293C459.022 63.9293 456.922 64.4993 455.062 65.6393C453.262 66.7793 451.822 68.3693 450.742 70.4093C449.722 72.4493 449.212 74.7893 449.212 77.4293C449.212 80.0693 449.722 82.4093 450.742 84.4493C451.822 86.4893 453.262 88.0793 455.062 89.2193C456.922 90.3593 459.022 90.9293 461.362 90.9293C464.062 90.9293 466.402 90.2093 468.382 88.7693C470.362 87.3293 471.772 85.3793 472.612 82.9193L484.312 88.0493C483.412 90.9293 481.852 93.5093 479.632 95.7893C477.412 98.0693 474.742 99.8693 471.622 101.189C468.502 102.449 465.082 103.079 461.362 103.079Z" fill="black" style="fill:black;fill-opacity:1;"/>
<path d="M408.892 103.079C403.672 103.079 399.142 101.939 395.302 99.6593C391.462 97.3193 388.492 94.1993 386.392 90.2993C384.292 86.3993 383.242 82.0793 383.242 77.3393C383.242 72.4193 384.322 68.0393 386.482 64.1993C388.702 60.3593 391.672 57.3293 395.392 55.1093C399.112 52.8893 403.312 51.7793 407.992 51.7793C411.892 51.7793 415.342 52.4093 418.342 53.6693C421.342 54.8693 423.862 56.5793 425.902 58.7993C428.002 61.0193 429.592 63.5993 430.672 66.5393C431.752 69.4193 432.292 72.5693 432.292 75.9893C432.292 76.9493 432.232 77.9093 432.112 78.8693C432.052 79.7693 431.902 80.5493 431.662 81.2093H394.852V71.3093H424.012L417.622 75.9893C418.222 73.4093 418.192 71.1293 417.532 69.1493C416.872 67.1093 415.702 65.5193 414.022 64.3793C412.402 63.1793 410.392 62.5793 407.992 62.5793C405.652 62.5793 403.642 63.1493 401.962 64.2893C400.282 65.4293 399.022 67.1093 398.182 69.3293C397.342 71.5493 397.012 74.2493 397.192 77.4293C396.952 80.1893 397.282 82.6193 398.182 84.7193C399.082 86.8193 400.462 88.4693 402.322 89.6693C404.182 90.8093 406.432 91.3793 409.072 91.3793C411.472 91.3793 413.512 90.8993 415.192 89.9393C416.932 88.9793 418.282 87.6593 419.242 85.9793L430.042 91.1093C429.082 93.5093 427.552 95.6093 425.452 97.4093C423.412 99.2093 420.982 100.619 418.162 101.639C415.342 102.599 412.252 103.079 408.892 103.079Z" fill="black" style="fill:black;fill-opacity:1;"/>
<path d="M355.331 103.079C351.131 103.079 347.171 102.329 343.451 100.829C339.791 99.2691 336.611 97.0791 333.911 94.2591C331.271 91.4391 329.291 88.1091 327.971 84.2691L339.401 79.1391C341.081 82.7991 343.391 85.6791 346.331 87.7791C349.331 89.8791 352.631 90.9291 356.231 90.9291C358.151 90.9291 359.801 90.6291 361.181 90.0291C362.561 89.4291 363.641 88.6191 364.421 87.5991C365.201 86.5191 365.591 85.2591 365.591 83.8191C365.591 82.2591 365.111 80.9391 364.151 79.8591C363.191 78.7191 361.691 77.8191 359.651 77.1591L346.511 72.8391C341.171 71.0991 337.151 68.6391 334.451 65.4591C331.751 62.2191 330.401 58.3491 330.401 53.8491C330.401 49.8891 331.361 46.4091 333.281 43.4091C335.261 40.4091 337.991 38.0691 341.471 36.3891C345.011 34.7091 349.061 33.8691 353.621 33.8691C357.641 33.8691 361.361 34.5591 364.781 35.9391C368.201 37.3191 371.141 39.2691 373.601 41.7891C376.121 44.3091 378.011 47.3391 379.271 50.8791L367.931 56.0091C366.671 52.8891 364.781 50.4591 362.261 48.7191C359.741 46.9191 356.861 46.0191 353.621 46.0191C351.761 46.0191 350.111 46.3191 348.671 46.9191C347.231 47.5191 346.121 48.3891 345.341 49.5291C344.561 50.6091 344.171 51.8691 344.171 53.3091C344.171 54.8691 344.681 56.2491 345.701 57.4491C346.721 58.5891 348.251 59.4891 350.291 60.1491L363.161 64.2891C368.561 66.0291 372.581 68.4591 375.221 71.5791C377.921 74.6991 379.271 78.5091 379.271 83.0091C379.271 86.9091 378.251 90.3891 376.211 93.4491C374.171 96.4491 371.351 98.8191 367.751 100.559C364.211 102.239 360.071 103.079 355.331 103.079Z" fill="black" style="fill:black;fill-opacity:1;"/>
<path d="M655.104 266.999L638.184 217.859H652.134L664.014 253.319L659.154 253.229L672.384 217.859H684.084L697.224 253.229L692.364 253.319L704.244 217.859H718.284L701.274 266.999H689.574L675.894 229.019H680.574L666.804 266.999H655.104Z" fill="#7D41E8" style="fill:#7D41E8;fill:color(display-p3 0.4885 0.2552 0.9084);fill-opacity:1;"/>
<path d="M613.795 268.079C608.575 268.079 604.045 266.939 600.205 264.659C596.365 262.319 593.395 259.199 591.295 255.299C589.195 251.399 588.145 247.079 588.145 242.339C588.145 237.419 589.225 233.039 591.385 229.199C593.605 225.359 596.575 222.329 600.295 220.109C604.015 217.889 608.215 216.779 612.895 216.779C616.795 216.779 620.245 217.409 623.245 218.669C626.245 219.869 628.765 221.579 630.805 223.799C632.905 226.019 634.495 228.599 635.575 231.539C636.655 234.419 637.195 237.569 637.195 240.989C637.195 241.949 637.135 242.909 637.015 243.869C636.955 244.769 636.805 245.549 636.565 246.209H599.755V236.309H628.915L622.525 240.989C623.125 238.409 623.095 236.129 622.435 234.149C621.775 232.109 620.605 230.519 618.925 229.379C617.305 228.179 615.295 227.579 612.895 227.579C610.555 227.579 608.545 228.149 606.865 229.289C605.185 230.429 603.925 232.109 603.085 234.329C602.245 236.549 601.915 239.249 602.095 242.429C601.855 245.189 602.185 247.619 603.085 249.719C603.985 251.819 605.365 253.469 607.225 254.669C609.085 255.809 611.335 256.379 613.975 256.379C616.375 256.379 618.415 255.899 620.095 254.939C621.835 253.979 623.185 252.659 624.145 250.979L634.945 256.109C633.985 258.509 632.455 260.609 630.355 262.409C628.315 264.209 625.885 265.619 623.065 266.639C620.245 267.599 617.155 268.079 613.795 268.079Z" fill="#7D41E8" style="fill:#7D41E8;fill:color(display-p3 0.4885 0.2552 0.9084);fill-opacity:1;"/>
<path d="M569.746 266.999V217.859H583.246V266.999H569.746ZM569.746 213.449V199.949H583.246V213.449H569.746Z" fill="#7D41E8" style="fill:#7D41E8;fill:color(display-p3 0.4885 0.2552 0.9084);fill-opacity:1;"/>
<path d="M535.752 266.999L516.402 217.859H530.982L544.392 255.029H538.812L552.222 217.859H566.802L547.452 266.999H535.752Z" fill="#7D41E8" style="fill:#7D41E8;fill:color(display-p3 0.4885 0.2552 0.9084);fill-opacity:1;"/>
<path d="M492.892 268.079C487.672 268.079 483.142 266.939 479.302 264.659C475.462 262.319 472.492 259.199 470.392 255.299C468.292 251.399 467.242 247.079 467.242 242.339C467.242 237.419 468.322 233.039 470.482 229.199C472.702 225.359 475.672 222.329 479.392 220.109C483.112 217.889 487.312 216.779 491.992 216.779C495.892 216.779 499.342 217.409 502.342 218.669C505.342 219.869 507.862 221.579 509.902 223.799C512.002 226.019 513.592 228.599 514.672 231.539C515.752 234.419 516.292 237.569 516.292 240.989C516.292 241.949 516.232 242.909 516.112 243.869C516.052 244.769 515.902 245.549 515.662 246.209H478.852V236.309H508.012L501.622 240.989C502.222 238.409 502.192 236.129 501.532 234.149C500.872 232.109 499.702 230.519 498.022 229.379C496.402 228.179 494.392 227.579 491.992 227.579C489.652 227.579 487.642 228.149 485.962 229.289C484.282 230.429 483.022 232.109 482.182 234.329C481.342 236.549 481.012 239.249 481.192 242.429C480.952 245.189 481.282 247.619 482.182 249.719C483.082 251.819 484.462 253.469 486.322 254.669C488.182 255.809 490.432 256.379 493.072 256.379C495.472 256.379 497.512 255.899 499.192 254.939C500.932 253.979 502.282 252.659 503.242 250.979L514.042 256.109C513.082 258.509 511.552 260.609 509.452 262.409C507.412 264.209 504.982 265.619 502.162 266.639C499.342 267.599 496.252 268.079 492.892 268.079Z" fill="#7D41E8" style="fill:#7D41E8;fill:color(display-p3 0.4885 0.2552 0.9084);fill-opacity:1;"/>
<path d="M415.908 266.999V199.949H441.558C446.178 199.949 450.258 200.759 453.798 202.379C457.398 203.999 460.218 206.399 462.258 209.579C464.298 212.759 465.318 216.689 465.318 221.369C465.318 225.929 464.268 229.829 462.168 233.069C460.068 236.249 457.248 238.649 453.708 240.269L469.008 266.999H453.348L436.788 237.389L445.788 242.699H429.858V266.999H415.908ZM429.858 230.549H441.648C443.628 230.549 445.338 230.159 446.778 229.379C448.218 228.599 449.328 227.519 450.108 226.139C450.948 224.759 451.368 223.169 451.368 221.369C451.368 219.509 450.948 217.889 450.108 216.509C449.328 215.129 448.218 214.049 446.778 213.269C445.338 212.489 443.628 212.099 441.648 212.099H429.858V230.549Z" fill="#7D41E8" style="fill:#7D41E8;fill:color(display-p3 0.4885 0.2552 0.9084);fill-opacity:1;"/>
<path d="M393.068 266.999V199.949H407.018V266.999H393.068Z" fill="#7D41E8" style="fill:#7D41E8;fill:color(display-p3 0.4885 0.2552 0.9084);fill-opacity:1;"/>
<path d="M357.581 268.079C352.301 268.079 347.591 266.969 343.451 264.749C339.311 262.529 336.041 259.499 333.641 255.659C331.301 251.759 330.131 247.349 330.131 242.429V199.949H344.081V241.529C344.081 244.169 344.651 246.569 345.791 248.729C346.991 250.829 348.611 252.479 350.651 253.679C352.691 254.879 355.001 255.479 357.581 255.479C360.221 255.479 362.531 254.879 364.511 253.679C366.551 252.479 368.141 250.829 369.281 248.729C370.481 246.569 371.081 244.169 371.081 241.529V199.949H385.031V242.429C385.031 247.349 383.831 251.759 381.431 255.659C379.091 259.499 375.851 262.529 371.711 264.749C367.571 266.969 362.861 268.079 357.581 268.079Z" fill="#7D41E8" style="fill:#7D41E8;fill:color(display-p3 0.4885 0.2552 0.9084);fill-opacity:1;"/>
</svg>
